<?xml version="1.0" standalone="no"?>
<!DOCTYPE svg PUBLIC "-//W3C//DTD SVG 20010904//EN"
 "http://www.w3.org/TR/2001/REC-SVG-20010904/DTD/svg10.dtd">
<svg version="1.0" xmlns="http://www.w3.org/2000/svg"
 width="584.000000pt" height="584.000000pt" viewBox="0 0 584.000000 584.000000"
 preserveAspectRatio="xMidYMid meet">
<metadata>
Created by potrace 1.11, written by Peter Selinger 2001-2013
</metadata>
<g transform="translate(0.000000,584.000000) scale(0.100000,-0.100000)"
fill="#000000" stroke="none">
<path d="M884 5774 c-21 -20 -73 -68 -115 -108 -41 -39 -129 -120 -194 -181
-65 -60 -140 -130 -166 -155 -26 -25 -102 -97 -170 -160 -68 -63 -149 -140
-180 -169 l-57 -55 41 -65 c23 -37 44 -68 47 -71 3 -3 18 -25 31 -50 14 -25
35 -62 47 -82 52 -91 68 -119 117 -218 81 -161 129 -282 176 -440 22 -78 36
-180 33 -256 -3 -101 -9 -136 -40 -259 -14 -55 -27 -107 -29 -115 -8 -35 -115
-371 -128 -402 -8 -18 -14 -35 -14 -38 0 -8 -53 -182 -68 -221 -40 -105 -131
-474 -150 -609 -4 -25 -9 -58 -12 -75 -18 -111 -17 -331 3 -425 3 -14 7 -36
10 -50 16 -82 108 -303 141 -338 7 -7 13 -20 13 -28 0 -8 5 -14 10 -14 6 0 14
-8 18 -19 4 -10 18 -33 32 -51 27 -35 209 -221 250 -255 52 -43 128 -95 139
-95 6 0 11 -4 11 -9 0 -10 58 -43 190 -107 147 -72 366 -139 485 -149 17 -2
46 -6 65 -9 19 -3 62 -8 95 -10 53 -4 108 -11 240 -31 22 -4 56 -10 75 -15 19
-5 46 -11 60 -14 14 -2 48 -10 75 -16 28 -6 57 -13 65 -15 8 -1 33 -8 55 -14
22 -6 49 -12 60 -14 11 -2 27 -6 35 -10 8 -3 49 -15 90 -27 128 -38 291 -99
398 -151 90 -43 122 -64 176 -114 13 -12 156 -14 156 -2 0 27 144 115 270 165
30 12 69 27 85 33 17 7 32 13 35 14 3 1 12 5 20 8 50 21 341 106 418 122 9 2
37 8 62 14 25 5 59 12 75 15 17 3 41 8 55 11 29 6 83 15 120 20 14 2 25 4 25
5 0 1 16 3 35 4 329 28 417 44 590 103 150 51 274 113 398 199 35 24 65 44 67
44 7 0 85 70 172 155 86 85 192 219 217 275 6 14 13 27 16 30 17 15 95 202
106 255 2 11 10 49 18 85 7 36 13 82 12 103 0 20 1 37 4 37 5 0 5 19 -5 175
-7 106 -10 139 -20 195 -3 19 -8 44 -10 55 -2 11 -6 31 -9 45 -3 14 -8 36 -10
50 -10 59 -84 337 -112 420 -9 25 -17 52 -19 60 -2 8 -34 107 -70 220 -37 113
-74 228 -82 255 -8 28 -17 57 -20 65 -4 8 -8 20 -9 25 -1 6 -3 13 -4 18 -1 4
-3 10 -5 15 -1 4 -5 14 -8 22 -4 8 -9 26 -11 40 -3 14 -14 60 -25 103 -11 43
-23 99 -27 125 -8 56 -9 215 -2 257 35 189 146 467 282 705 14 25 30 54 36 65
9 19 24 44 122 199 l46 74 -115 108 c-63 60 -144 136 -179 170 -35 33 -64 60
-64 59 0 -1 -26 23 -58 54 -32 31 -113 108 -181 171 -68 63 -149 140 -181 170
-32 30 -76 72 -98 92 l-40 37 -34 -29 c-18 -16 -36 -30 -39 -30 -3 0 -17 -10
-30 -21 -87 -77 -322 -197 -439 -224 -3 0 -15 -4 -28 -9 -12 -4 -34 -9 -50
-11 -15 -2 -28 -4 -29 -6 -13 -9 -144 -22 -253 -24 -102 -2 -150 1 -280 20
-226 32 -569 161 -755 284 l-60 39 -35 -21 c-92 -54 -123 -71 -227 -122 -62
-30 -117 -55 -123 -55 -5 0 -18 -4 -28 -9 -14 -8 -36 -17 -62 -26 -3 -1 -12
-4 -20 -8 -20 -8 -83 -27 -106 -32 -10 -2 -44 -11 -74 -19 -30 -8 -71 -18 -90
-21 -19 -3 -42 -8 -50 -10 -59 -17 -337 -27 -422 -14 -29 4 -73 11 -98 15 -50
7 -188 46 -235 65 -16 7 -32 13 -35 13 -9 2 -165 81 -170 86 -3 3 -34 25 -70
49 -36 24 -86 61 -111 82 l-46 38 -39 -35z"/>
</g>
</svg>
